<svg width="29" height="28" viewBox="0 0 29 28" fill="none" xmlns="http://www.w3.org/2000/svg">
<path opacity="0.2" d="M28.5058 17.3869C26.6359 24.887 19.0391 29.451 11.5382 27.5811C4.04077 25.7113 -0.523665 18.1145 1.34665 10.6149C3.21565 3.11395 10.812 -1.45093 18.3107 0.418948C25.8112 2.28882 30.3752 9.88645 28.5053 17.3869H28.5058Z" fill="#FEFEFE"/>
<path d="M20.993 16.4972C20.9032 16.4972 20.8583 16.4523 20.8583 16.3624V14.7087H19.0085C18.9187 14.7087 18.8738 14.6597 18.8738 14.5617V13.6797C18.8738 13.5817 18.9187 13.5327 19.0085 13.5327H20.8583V11.8789C20.8583 11.7809 20.9032 11.7319 20.993 11.7319H21.924C22.0139 11.7319 22.0588 11.7809 22.0588 11.8789V13.5327H23.9085C23.9984 13.5327 24.0433 13.5817 24.0433 13.6797V14.5617C24.0433 14.6597 23.9984 14.7087 23.9085 14.7087H22.0588V16.3624C22.0588 16.4523 22.0139 16.4972 21.924 16.4972H20.993Z" fill="#14141A"/>
<path d="M14.1711 17.9426C13.1911 17.9426 12.4357 17.7507 11.9048 17.3669C11.3822 16.983 11.1208 16.4032 11.1208 15.6274C11.1208 15.1047 11.2433 14.6637 11.4883 14.3044C11.7415 13.945 12.0886 13.6837 12.5296 13.5204C12.1866 13.3652 11.9253 13.1447 11.7456 12.8589C11.5741 12.5649 11.4883 12.181 11.4883 11.7074C11.4883 11.054 11.717 10.5436 12.1743 10.1761C12.6317 9.80863 13.2973 9.62488 14.1711 9.62488C15.0449 9.62488 15.7105 9.80863 16.1679 10.1761C16.6252 10.5436 16.8538 11.054 16.8538 11.7074C16.8538 12.181 16.764 12.5649 16.5844 12.8589C16.4128 13.1447 16.1515 13.3652 15.8004 13.5204C16.2495 13.6837 16.5966 13.945 16.8416 14.3044C17.0948 14.6637 17.2213 15.1047 17.2213 15.6274C17.2213 16.4032 16.9559 16.983 16.4251 17.3669C15.9024 17.7507 15.1511 17.9426 14.1711 17.9426ZM14.1711 16.7544C14.7019 16.7544 15.098 16.6523 15.3593 16.4481C15.6288 16.244 15.7636 15.954 15.7636 15.5784V15.3946C15.7636 14.97 15.6207 14.6474 15.3348 14.4269C15.0572 14.1982 14.6693 14.0839 14.1711 14.0839C13.6729 14.0839 13.2809 14.1982 12.9951 14.4269C12.7174 14.6474 12.5786 14.97 12.5786 15.3946V15.5784C12.5786 15.954 12.7093 16.244 12.9706 16.4481C13.2401 16.6523 13.6403 16.7544 14.1711 16.7544ZM14.1711 13.0181C14.5794 13.0181 14.8898 12.9283 15.1021 12.7486C15.3226 12.5608 15.4328 12.3035 15.4328 11.9769V11.7931C15.4328 11.4828 15.3226 11.2378 15.1021 11.0581C14.8898 10.8703 14.5794 10.7764 14.1711 10.7764C13.7628 10.7764 13.4483 10.8703 13.2278 11.0581C13.0155 11.2378 12.9093 11.4828 12.9093 11.7931V11.9769C12.9093 12.3035 13.0155 12.5608 13.2278 12.7486C13.4483 12.9283 13.7628 13.0181 14.1711 13.0181Z" fill="#14141A"/>
<path d="M5.25926 17.7957C5.16943 17.7957 5.12451 17.7467 5.12451 17.6487V16.6687C5.12451 16.5789 5.16943 16.5339 5.25926 16.5339H7.12126V11.3154L5.34501 11.8667C5.24701 11.8994 5.19801 11.8626 5.19801 11.7564V10.7887C5.19801 10.707 5.23068 10.6539 5.29601 10.6294L8.00326 9.74744C8.03593 9.73928 8.0686 9.73111 8.10126 9.72294C8.1421 9.71478 8.17885 9.71069 8.21151 9.71069H8.43201C8.52185 9.71069 8.56676 9.75969 8.56676 9.85769V16.5339H10.245C10.343 16.5339 10.392 16.5789 10.392 16.6687V17.6487C10.392 17.7467 10.343 17.7957 10.245 17.7957H5.25926Z" fill="#14141A"/>
</svg>
