<svg width="29" height="28" viewBox="0 0 29 28" fill="none" xmlns="http://www.w3.org/2000/svg">
<path opacity="0.2" d="M28.5036 17.3869C26.6337 24.887 19.037 29.451 11.536 27.5811C4.03858 25.7113 -0.525862 18.1145 1.34445 10.6149C3.21345 3.11395 10.8098 -1.45093 18.3085 0.418948C25.809 2.28882 30.373 9.88645 28.5031 17.3869H28.5036Z" fill="white"/>
<path d="M15.6038 7.79822L15.1848 9.47595C15.4644 9.53976 15.7461 9.60398 16.0198 9.67224L16.4348 8.00525L17.4768 8.26501L17.05 9.97693C18.3657 10.4301 19.3277 11.1097 19.1389 12.3734C19.0021 13.2985 18.4896 13.7461 17.8088 13.9037C18.7437 14.3907 19.2191 15.138 18.7659 16.432C18.204 18.0383 16.8676 18.1744 15.0911 17.8383L14.6594 19.5658L13.6174 19.306L14.0432 17.601C13.7732 17.5339 13.4971 17.4632 13.2131 17.3861L12.7854 19.099L11.7444 18.8392L12.176 17.1078C11.9331 17.0455 11.686 16.9786 11.4338 16.9154L10.0774 16.5775L10.594 15.3842C10.594 15.3842 11.3591 15.5879 11.3518 15.5736C11.6468 15.6466 11.7777 15.4538 11.8293 15.3256L12.511 12.5941L12.6204 12.6215C12.5791 12.605 12.5419 12.5937 12.5129 12.5863L12.9983 10.6361C13.0113 10.4147 12.9348 10.136 12.5129 10.0306C12.5293 10.0197 11.7561 9.84216 11.7561 9.84216L12.0334 8.72888L13.4709 9.08826L13.469 9.09314C13.6851 9.14686 13.9083 9.19775 14.135 9.24939L14.5618 7.53845L15.6038 7.79822ZM13.552 16.1312C14.2587 16.3069 16.4377 17.0063 16.76 15.7123C17.0957 14.3628 14.8307 14.0136 14.1243 13.8373L13.552 16.1312ZM14.385 12.7875C14.9738 12.9342 16.7865 13.5316 17.0803 12.3549C17.3866 11.127 15.4921 10.853 14.9036 10.7064L14.385 12.7875Z" fill="#14141A"/>
</svg>
