<svg width="29" height="28" viewBox="0 0 29 28" fill="none" xmlns="http://www.w3.org/2000/svg">
<path opacity="0.2" d="M28.5048 17.3869C26.6349 24.887 19.0382 29.451 11.5372 27.5811C4.0398 25.7113 -0.524641 18.1145 1.34567 10.6149C3.21467 3.11395 10.811 -1.45093 18.3097 0.418948C25.8102 2.28882 30.3742 9.88645 28.5044 17.3869H28.5048Z" fill="#FEFEFE"/>
<g clip-path="url(#clip0_146_10989)">
<path opacity="0.6" d="M14.6357 12.3672L10.6074 14.1985L14.6357 16.5798L18.6647 14.1985L14.6357 12.3672Z" fill="#14141A"/>
<path opacity="0.45" d="M10.6082 14.1984L14.6364 16.5797V12.3671V7.51428L10.6082 14.1984Z" fill="#14141A"/>
<path opacity="0.8" d="M14.6372 7.51428V12.3671V16.5797L18.6655 14.1984L14.6372 7.51428Z" fill="#14141A"/>
<path opacity="0.45" d="M10.6074 14.9625L14.6357 20.6392V17.3423L10.6074 14.9625Z" fill="#14141A"/>
<path opacity="0.8" d="M14.6348 17.3423V20.6392L18.666 14.9625L14.6348 17.3423Z" fill="#14141A"/>
</g>
<defs>
<clipPath id="clip0_146_10989">
<rect width="8.75" height="14" fill="white" transform="translate(10.5518 7)"/>
</clipPath>
</defs>
</svg>
