<svg width="248" height="28" viewBox="0 0 248 28" fill="none" xmlns="http://www.w3.org/2000/svg">
<path d="M17.6756 7.43726L14.7881 20.7373H18.2881L21.088 7.43726H17.6756Z" fill="#424246"/>
<path d="M12.5998 7.43733L9.01225 16.4498L7.52473 8.74983C7.34973 7.87483 6.64974 7.43733 5.94975 7.43733H0.0872345L-0.000244141 7.78735C1.22476 8.04985 2.53728 8.48734 3.41228 8.92484C3.93728 9.18734 4.02474 9.44983 4.19975 10.0623L6.91228 20.6499H10.5872L16.1873 7.34985H12.5998V7.43733Z" fill="#424246"/>
<path d="M39.8123 7.43726H36.8372C36.1372 7.43726 35.6123 7.78729 35.3498 8.39979L30.1873 20.7373H33.7747L34.4748 18.7248H38.8498L39.2873 20.7373H42.4373L39.8123 7.43726ZM35.6123 16.0122L37.4497 11.0248L38.4998 16.0122H35.6123Z" fill="#424246"/>
<path d="M25.6374 11.1123C25.6374 10.6748 26.0749 10.1498 27.1249 9.97482C27.6499 9.88732 28.9624 9.88733 30.5374 10.5873L31.1499 7.78732C30.3624 7.52482 29.2249 7.1748 27.9124 7.1748C24.4999 7.1748 22.1374 9.0123 22.1374 11.5498C22.1374 13.4748 23.8874 14.5248 25.1124 15.1373C26.4249 15.7498 26.8624 16.1873 26.8624 16.7998C26.8624 17.6748 25.8124 18.1123 24.7624 18.1123C23.0124 18.1123 22.0499 17.6748 21.2624 17.2373L20.6499 20.1248C21.4374 20.4748 22.9249 20.8248 24.4999 20.8248C28.0874 20.8248 30.4499 19.0748 30.4499 16.2748C30.4499 12.9498 25.5499 12.6873 25.6374 11.1123Z" fill="#424246"/>
<path d="M61.2744 15.8376C61.2744 16.1876 61.4494 16.3625 61.7994 16.3625C62.4119 16.3625 62.762 15.8375 62.8495 15.05C62.6745 15.05 62.6744 15.05 62.4994 15.05C61.7119 15.05 61.2744 15.3126 61.2744 15.8376Z" fill="#424246"/>
<path d="M83.6746 15.8376C83.6746 16.1876 83.8495 16.3625 84.1995 16.3625C84.812 16.3625 85.162 15.8375 85.2495 15.05C85.0745 15.05 85.0745 15.05 84.8995 15.05C84.0245 15.05 83.6746 15.3126 83.6746 15.8376Z" fill="#424246"/>
<path d="M72.999 13.2124C72.5615 13.2124 72.2115 13.5624 72.124 14.1749H73.699C73.699 13.9999 73.874 13.2124 72.999 13.2124Z" fill="#424246"/>
<path d="M91.9876 13.3875C91.3751 13.3875 90.8501 14.1749 90.8501 15.2249C90.8501 15.9249 91.1126 16.2749 91.5501 16.2749C92.2501 16.2749 92.6876 15.4875 92.6876 14.4375C92.7751 13.7375 92.5126 13.3875 91.9876 13.3875Z" fill="#424246"/>
<path d="M82.8865 0.962402C79.5615 0.962402 76.499 2.18739 74.1365 4.28739C71.8615 2.18739 68.799 0.962402 65.474 0.962402C58.299 0.962402 52.4365 6.82492 52.4365 13.9999C52.4365 21.1749 58.299 27.0374 65.474 27.0374C68.799 27.0374 71.8615 25.8124 74.1365 23.7124C76.4115 25.8124 79.474 27.0374 82.8865 27.0374C90.0615 27.0374 95.924 21.1749 95.924 13.9999C95.924 6.82492 90.0615 0.962402 82.8865 0.962402ZM57.949 17.4999L58.7365 12.4249L56.899 17.4999H55.9365L55.849 12.4249L54.974 17.4999H53.6615L54.799 10.8499H56.8115L56.899 14.9624L58.299 10.8499H60.4865L59.349 17.4999H57.949ZM62.674 17.4999V16.9749C62.324 17.4124 61.799 17.5874 61.1865 17.5874C60.399 17.5874 59.874 16.9749 59.874 16.0999C59.874 14.7874 60.749 13.9999 62.324 13.9999C62.499 13.9999 62.674 13.9999 62.9365 13.9999C63.024 13.8249 63.024 13.7374 63.024 13.6499C63.024 13.2999 62.7615 13.1249 62.149 13.1249C61.449 13.1249 60.924 13.2999 60.6615 13.3874C60.6615 13.2999 60.8365 12.1624 60.8365 12.1624C61.5365 11.9874 61.974 11.8999 62.499 11.8999C63.724 11.8999 64.3365 12.4249 64.3365 13.4749C64.3365 13.7374 64.3365 14.0874 64.249 14.5249C64.1615 15.3124 63.899 16.9749 63.8115 17.4124C63.6365 17.4999 62.674 17.4999 62.674 17.4999ZM66.874 14.2624C67.574 14.6124 67.8365 15.0499 67.8365 15.7499C67.8365 16.9749 67.1365 17.5874 65.649 17.5874C64.774 17.5874 64.5115 17.4999 64.1615 17.4124C64.1615 17.3249 64.3365 16.1874 64.3365 16.1874C64.774 16.3624 65.2115 16.3624 65.649 16.3624C66.174 16.3624 66.4365 16.1874 66.4365 15.8374C66.4365 15.5749 66.349 15.4874 65.7365 15.2249C64.949 14.8749 64.6865 14.4374 64.6865 13.7374C64.6865 12.7749 65.2115 11.8999 66.7865 11.8999C67.1365 11.8999 67.6615 11.9874 68.0115 11.9874L67.8365 13.2124C67.4865 13.1249 67.1365 13.1249 66.7865 13.1249C66.349 13.1249 66.0865 13.2999 66.0865 13.5624C66.174 13.9124 66.2615 13.9999 66.874 14.2624ZM69.9365 16.2749C70.1115 16.2749 70.199 16.2749 70.2865 16.1874L70.1115 17.4124C69.7615 17.4999 69.4115 17.5874 69.0615 17.5874C68.3615 17.5874 67.924 17.1499 67.924 16.3624C67.924 16.0999 68.0115 15.4874 68.099 14.9624C68.1865 14.4374 68.7115 11.2874 68.7115 11.2874H70.1115L69.9365 12.0749H70.6365L70.4615 13.3874H69.7615C69.5865 14.4374 69.324 15.6624 69.324 15.8374C69.499 16.0999 69.674 16.2749 69.9365 16.2749ZM73.2615 16.3624C73.7865 16.3624 74.224 16.2749 74.749 16.0124L74.4865 17.3249C73.9615 17.4999 73.524 17.4999 72.999 17.4999C71.424 17.4999 70.6365 16.7124 70.6365 15.1374C70.6365 13.2999 71.6865 11.8999 73.0865 11.8999C74.224 11.8999 75.0115 12.6874 75.0115 13.8249C75.0115 14.2624 74.924 14.6124 74.8365 15.1374H72.0365C71.949 16.0124 72.474 16.3624 73.2615 16.3624ZM76.4115 17.4999H75.0115L75.099 17.1499C75.3615 15.4874 75.624 13.8249 75.799 12.1624H77.1115C77.1115 12.4249 77.024 12.6874 77.024 12.9499C77.4615 12.3374 77.8115 11.9874 78.424 12.0749C78.249 12.3374 77.9865 12.9499 77.899 13.6499C77.024 13.5624 76.9365 14.1749 76.4115 17.4999ZM81.8365 17.4124C81.3115 17.5874 80.9615 17.5874 80.6115 17.5874C79.124 17.5874 78.1615 16.4499 78.1615 14.6999C78.1615 12.3374 79.474 10.6749 81.399 10.6749C82.0115 10.6749 82.7115 10.9374 82.974 11.0249L82.7115 12.4249C82.1865 12.1624 81.8365 12.0749 81.4865 12.0749C80.4365 12.0749 79.649 13.1249 79.649 14.5249C79.649 15.4874 80.174 16.0999 80.9615 16.0999C81.3115 16.0999 81.6615 16.0124 82.1865 15.7499L81.8365 17.4124ZM86.2115 17.4999C86.0365 17.4999 85.074 17.4999 85.074 17.4999V16.9749C84.724 17.4124 84.199 17.5874 83.5865 17.5874C82.799 17.5874 82.274 16.9749 82.274 16.0999C82.274 14.7874 83.149 13.9999 84.724 13.9999C84.899 13.9999 85.074 13.9999 85.3365 13.9999C85.424 13.8249 85.424 13.7374 85.424 13.6499C85.424 13.2999 85.1615 13.1249 84.549 13.1249C83.849 13.1249 83.324 13.2999 83.0615 13.3874C83.0615 13.2999 83.2365 12.1624 83.2365 12.1624C83.9365 11.9874 84.374 11.8999 84.899 11.8999C86.124 11.8999 86.7365 12.4249 86.7365 13.4749C86.7365 13.7374 86.7365 14.0874 86.649 14.5249C86.474 15.3999 86.2115 17.0624 86.2115 17.4999ZM88.1365 17.4999H86.7365L86.824 17.1499C87.0865 15.4874 87.349 13.8249 87.524 12.1624H88.8365C88.8365 12.4249 88.749 12.6874 88.749 12.9499C89.1865 12.3374 89.5365 11.9874 90.149 12.0749C89.974 12.3374 89.7115 12.9499 89.624 13.6499C88.749 13.5624 88.574 14.1749 88.1365 17.4999ZM92.3365 17.4999L92.424 16.9749C92.074 17.4124 91.6365 17.5874 91.1115 17.5874C90.0615 17.5874 89.3615 16.7124 89.3615 15.3124C89.3615 13.5624 90.4115 11.9874 91.6365 11.9874C92.1615 11.9874 92.599 12.2499 92.949 12.6874L93.299 10.7624H94.699L93.649 17.4124H92.3365V17.4999Z" fill="#424246"/>
<path d="M133.849 14.0001C133.849 21.6914 127.615 27.9264 119.923 27.9264C112.232 27.9264 105.997 21.6914 105.997 14.0001C105.997 6.30892 112.232 0.0739746 119.923 0.0739746C127.614 0.0739746 133.849 6.30892 133.849 14.0001Z" fill="#424246"/>
<path d="M118.494 13.7564V11.3201H115.189V9.18457H124.423V11.3502H121.119V13.7564H118.494Z" fill="#14141A"/>
<path d="M119.731 12.5532C123.035 12.5533 125.69 13.2149 125.691 14.0269C125.691 14.8389 123.035 15.5004 119.731 15.5005C116.426 15.5005 113.77 14.839 113.77 14.0269C113.77 13.2148 116.427 12.5532 119.731 12.5532ZM119.73 12.7935C116.271 12.7935 114.479 13.696 114.263 14.0269C114.479 14.3276 116.271 14.7788 119.73 14.7788C123.219 14.7788 124.979 14.3276 125.196 14.0269C124.979 13.7259 123.188 12.7935 119.73 12.7935Z" fill="#14141A"/>
<path d="M121.12 14.5084V12.8241C120.688 12.794 120.224 12.7639 119.761 12.7639C119.329 12.7639 118.927 12.7639 118.526 12.794V14.4784C118.896 14.4784 119.329 14.5084 119.761 14.5084C120.224 14.5385 120.688 14.5385 121.12 14.5084Z" fill="#14141A"/>
<path d="M119.73 15.5011C119.298 15.5011 118.897 15.5011 118.495 15.471V19.9526H121.089V15.4409C120.657 15.471 120.194 15.5011 119.73 15.5011Z" fill="#14141A"/>
<path d="M171.504 17.3869C169.634 24.887 162.037 29.451 154.536 27.5811C147.039 25.7113 142.474 18.1145 144.344 10.6149C146.213 3.11395 153.81 -1.45093 161.309 0.418948C168.809 2.28882 173.373 9.88645 171.503 17.3869H171.504Z" fill="#424246"/>
<path d="M158.604 7.7981L158.185 9.47583C158.464 9.53964 158.746 9.60386 159.02 9.67212L159.435 8.00513L160.477 8.26489L160.05 9.97681C161.366 10.43 162.328 11.1095 162.139 12.3733C162.002 13.2983 161.49 13.7459 160.809 13.9036C161.744 14.3906 162.219 15.1379 161.766 16.4319C161.204 18.0382 159.868 18.1743 158.091 17.8381L157.659 19.5657L156.617 19.3059L157.043 17.6008C156.773 17.5338 156.497 17.4631 156.213 17.386L155.785 19.0989L154.744 18.8391L155.176 17.1077C154.933 17.0454 154.686 16.9785 154.434 16.9153L153.077 16.5774L153.594 15.384C153.594 15.384 154.359 15.5877 154.352 15.5735C154.647 15.6464 154.778 15.4536 154.829 15.3254L155.511 12.594L155.62 12.6213C155.579 12.6049 155.542 12.5936 155.513 12.5862L155.998 10.636C156.011 10.4146 155.935 10.1358 155.513 10.0305C155.529 10.0195 154.756 9.84204 154.756 9.84204L155.033 8.72876L156.471 9.08813L156.469 9.09302C156.685 9.14674 156.908 9.19763 157.135 9.24927L157.562 7.53833L158.604 7.7981ZM156.552 16.1311C157.259 16.3068 159.438 17.0061 159.76 15.7122C160.096 14.3627 157.831 14.0135 157.124 13.8372L156.552 16.1311ZM157.385 12.7874C157.974 12.9341 159.786 13.5315 160.08 12.3547C160.387 11.1269 158.492 10.8529 157.904 10.7063L157.385 12.7874Z" fill="#14141A"/>
<path d="M209.505 17.3869C207.635 24.887 200.038 29.451 192.537 27.5811C185.04 25.7113 180.475 18.1145 182.345 10.6149C184.214 3.11395 191.811 -1.45093 199.309 0.418948C206.81 2.28882 211.374 9.88645 209.504 17.3869H209.505Z" fill="#424246"/>
<g clip-path="url(#clip0_549_7509)">
<path opacity="0.6" d="M195.635 12.3669L191.607 14.1982L195.635 16.5795L199.664 14.1982L195.635 12.3669Z" fill="#14141A"/>
<path opacity="0.45" d="M191.608 14.1983L195.636 16.5796V12.367V7.51416L191.608 14.1983Z" fill="#14141A"/>
<path opacity="0.8" d="M195.637 7.51416V12.367V16.5796L199.665 14.1983L195.637 7.51416Z" fill="#14141A"/>
<path opacity="0.45" d="M191.607 14.9624L195.635 20.6391V17.3422L191.607 14.9624Z" fill="#14141A"/>
<path opacity="0.8" d="M195.635 17.3422V20.6391L199.666 14.9624L195.635 17.3422Z" fill="#14141A"/>
</g>
<path d="M247.506 17.3869C245.636 24.887 238.039 29.451 230.538 27.5811C223.041 25.7113 218.476 18.1145 220.347 10.6149C222.216 3.11395 229.812 -1.45093 237.311 0.418948C244.811 2.28882 249.375 9.88645 247.505 17.3869H247.506Z" fill="#424246"/>
<path d="M239.993 16.4972C239.903 16.4972 239.858 16.4523 239.858 16.3624V14.7087H238.009C237.919 14.7087 237.874 14.6597 237.874 14.5617V13.6797C237.874 13.5817 237.919 13.5327 238.009 13.5327H239.858V11.8789C239.858 11.7809 239.903 11.7319 239.993 11.7319H240.924C241.014 11.7319 241.059 11.7809 241.059 11.8789V13.5327H242.909C242.998 13.5327 243.043 13.5817 243.043 13.6797V14.5617C243.043 14.6597 242.998 14.7087 242.909 14.7087H241.059V16.3624C241.059 16.4523 241.014 16.4972 240.924 16.4972H239.993Z" fill="#14141A"/>
<path d="M233.171 17.9428C232.191 17.9428 231.435 17.7508 230.905 17.367C230.382 16.9832 230.121 16.4033 230.121 15.6275C230.121 15.1048 230.243 14.6638 230.488 14.3045C230.741 13.9452 231.088 13.6838 231.529 13.5205C231.186 13.3653 230.925 13.1448 230.745 12.859C230.574 12.565 230.488 12.1812 230.488 11.7075C230.488 11.0542 230.717 10.5438 231.174 10.1763C231.631 9.80875 232.297 9.625 233.171 9.625C234.045 9.625 234.71 9.80875 235.168 10.1763C235.625 10.5438 235.854 11.0542 235.854 11.7075C235.854 12.1812 235.764 12.565 235.584 12.859C235.413 13.1448 235.151 13.3653 234.8 13.5205C235.249 13.6838 235.596 13.9452 235.841 14.3045C236.095 14.6638 236.221 15.1048 236.221 15.6275C236.221 16.4033 235.956 16.9832 235.425 17.367C234.902 17.7508 234.151 17.9428 233.171 17.9428ZM233.171 16.7545C233.702 16.7545 234.098 16.6524 234.359 16.4483C234.629 16.2441 234.763 15.9542 234.763 15.5785V15.3948C234.763 14.9701 234.62 14.6475 234.335 14.427C234.057 14.1983 233.669 14.084 233.171 14.084C232.673 14.084 232.281 14.1983 231.995 14.427C231.717 14.6475 231.578 14.9701 231.578 15.3948V15.5785C231.578 15.9542 231.709 16.2441 231.97 16.4483C232.24 16.6524 232.64 16.7545 233.171 16.7545ZM233.171 13.0183C233.579 13.0183 233.89 12.9284 234.102 12.7488C234.322 12.5609 234.433 12.3037 234.433 11.977V11.7933C234.433 11.4829 234.322 11.2379 234.102 11.0583C233.89 10.8704 233.579 10.7765 233.171 10.7765C232.763 10.7765 232.448 10.8704 232.228 11.0583C232.015 11.2379 231.909 11.4829 231.909 11.7933V11.977C231.909 12.3037 232.015 12.5609 232.228 12.7488C232.448 12.9284 232.763 13.0183 233.171 13.0183Z" fill="#14141A"/>
<path d="M224.259 17.7957C224.169 17.7957 224.124 17.7467 224.124 17.6487V16.6687C224.124 16.5789 224.169 16.5339 224.259 16.5339H226.121V11.3154L224.345 11.8667C224.247 11.8994 224.198 11.8626 224.198 11.7564V10.7887C224.198 10.707 224.23 10.6539 224.296 10.6294L227.003 9.74744C227.036 9.73928 227.068 9.73111 227.101 9.72294C227.142 9.71478 227.179 9.71069 227.211 9.71069H227.432C227.522 9.71069 227.567 9.75969 227.567 9.85769V16.5339H229.245C229.343 16.5339 229.392 16.5789 229.392 16.6687V17.6487C229.392 17.7467 229.343 17.7957 229.245 17.7957H224.259Z" fill="#14141A"/>
<defs>
<clipPath id="clip0_549_7509">
<rect width="8.75" height="14" fill="white" transform="translate(191.552 7)"/>
</clipPath>
</defs>
</svg>
