<svg width="44" height="28" viewBox="0 0 44 28" fill="none" xmlns="http://www.w3.org/2000/svg">
<g opacity="0.2">
<path d="M9.27441 15.8376C9.27441 16.1876 9.44945 16.3625 9.79945 16.3625C10.4119 16.3625 10.762 15.8375 10.8495 15.05C10.6745 15.05 10.6744 15.05 10.4994 15.05C9.71194 15.05 9.27441 15.3126 9.27441 15.8376Z" fill="white"/>
<path d="M31.6748 15.8376C31.6748 16.1876 31.8498 16.3625 32.1998 16.3625C32.8123 16.3625 33.1623 15.8375 33.2498 15.05C33.0748 15.05 33.0748 15.05 32.8998 15.05C32.0248 15.05 31.6748 15.3126 31.6748 15.8376Z" fill="white"/>
<path d="M20.9993 13.2125C20.5618 13.2125 20.2118 13.5625 20.1243 14.175H21.6993C21.6993 14 21.8743 13.2125 20.9993 13.2125Z" fill="white"/>
<path d="M39.9876 13.3876C39.3751 13.3876 38.8501 14.1751 38.8501 15.2251C38.8501 15.9251 39.1126 16.2751 39.5501 16.2751C40.2501 16.2751 40.6876 15.4876 40.6876 14.4376C40.7751 13.7376 40.5126 13.3876 39.9876 13.3876Z" fill="white"/>
<path d="M30.8868 0.962524C27.5618 0.962524 24.4993 2.18751 22.1368 4.28751C19.8618 2.18751 16.7993 0.962524 13.4743 0.962524C6.29929 0.962524 0.436768 6.82505 0.436768 14C0.436768 21.175 6.29929 27.0375 13.4743 27.0375C16.7993 27.0375 19.8618 25.8125 22.1368 23.7125C24.4118 25.8125 27.4743 27.0375 30.8868 27.0375C38.0618 27.0375 43.9243 21.175 43.9243 14C43.9243 6.82505 38.0618 0.962524 30.8868 0.962524ZM5.94926 17.5L6.73678 12.425L4.89925 17.5H3.93677L3.84929 12.425L2.97429 17.5H1.66179L2.79928 10.85H4.81177L4.89925 14.9625L6.29928 10.85H8.48678L7.34929 17.5H5.94926ZM10.6743 17.5V16.975C10.3243 17.4125 9.79927 17.5875 9.18677 17.5875C8.39927 17.5875 7.87427 16.975 7.87427 16.1C7.87427 14.7875 8.74926 14 10.3243 14C10.4993 14 10.6743 14 10.9368 14C11.0243 13.825 11.0242 13.7375 11.0242 13.65C11.0242 13.3 10.7617 13.125 10.1492 13.125C9.44925 13.125 8.92429 13.3 8.66179 13.3875C8.66179 13.3 8.83675 12.1625 8.83675 12.1625C9.53675 11.9875 9.97427 11.9 10.4993 11.9C11.7243 11.9 12.3367 12.425 12.3367 13.475C12.3367 13.7375 12.3368 14.0875 12.2493 14.525C12.1618 15.3125 11.8993 16.975 11.8118 17.4125C11.6368 17.5 10.6743 17.5 10.6743 17.5ZM14.8743 14.2625C15.5743 14.6125 15.8367 15.05 15.8367 15.75C15.8367 16.975 15.1367 17.5875 13.6492 17.5875C12.7742 17.5875 12.5118 17.5 12.1618 17.4125C12.1618 17.325 12.3367 16.1875 12.3367 16.1875C12.7742 16.3625 13.2117 16.3625 13.6492 16.3625C14.1742 16.3625 14.4368 16.1875 14.4368 15.8375C14.4368 15.575 14.3493 15.4875 13.7368 15.225C12.9493 14.875 12.6868 14.4375 12.6868 13.7375C12.6868 12.775 13.2118 11.9 14.7868 11.9C15.1368 11.9 15.6618 11.9875 16.0118 11.9875L15.8367 13.2125C15.4867 13.125 15.1368 13.125 14.7868 13.125C14.3493 13.125 14.0867 13.3 14.0867 13.5625C14.1742 13.9125 14.2618 14 14.8743 14.2625ZM17.9368 16.275C18.1118 16.275 18.1993 16.275 18.2868 16.1875L18.1118 17.4125C17.7618 17.5 17.4118 17.5875 17.0618 17.5875C16.3618 17.5875 15.9243 17.15 15.9243 16.3625C15.9243 16.1 16.0118 15.4875 16.0993 14.9625C16.1868 14.4375 16.7117 11.2875 16.7117 11.2875H18.1118L17.9368 12.075H18.6368L18.4617 13.3875H17.7618C17.5868 14.4375 17.3243 15.6625 17.3243 15.8375C17.4993 16.1 17.6743 16.275 17.9368 16.275ZM21.2618 16.3625C21.7868 16.3625 22.2243 16.275 22.7493 16.0125L22.4868 17.325C21.9618 17.5 21.5243 17.5 20.9993 17.5C19.4243 17.5 18.6368 16.7125 18.6368 15.1375C18.6368 13.3 19.6867 11.9 21.0867 11.9C22.2242 11.9 23.0118 12.6875 23.0118 13.825C23.0118 14.2625 22.9242 14.6125 22.8367 15.1375H20.0368C19.9493 16.0125 20.4743 16.3625 21.2618 16.3625ZM24.4118 17.5H23.0118L23.0993 17.15C23.3618 15.4875 23.6243 13.825 23.7993 12.1625H25.1118C25.1118 12.425 25.0242 12.6875 25.0242 12.95C25.4617 12.3375 25.8118 11.9875 26.4243 12.075C26.2493 12.3375 25.9867 12.95 25.8992 13.65C25.0242 13.5625 24.9368 14.175 24.4118 17.5ZM29.8367 17.4125C29.3117 17.5875 28.9618 17.5875 28.6118 17.5875C27.1243 17.5875 26.1618 16.45 26.1618 14.7C26.1618 12.3375 27.4742 10.675 29.3992 10.675C30.0117 10.675 30.7118 10.9375 30.9743 11.025L30.7117 12.425C30.1867 12.1625 29.8368 12.075 29.4868 12.075C28.4368 12.075 27.6492 13.125 27.6492 14.525C27.6492 15.4875 28.1742 16.1 28.9617 16.1C29.3117 16.1 29.6618 16.0125 30.1868 15.75L29.8367 17.4125ZM34.2117 17.5C34.0367 17.5 33.0743 17.5 33.0743 17.5V16.975C32.7243 17.4125 32.1992 17.5875 31.5867 17.5875C30.7992 17.5875 30.2742 16.975 30.2742 16.1C30.2742 14.7875 31.1493 14 32.7243 14C32.8993 14 33.0742 14 33.3367 14C33.4242 13.825 33.4243 13.7375 33.4243 13.65C33.4243 13.3 33.1618 13.125 32.5493 13.125C31.8493 13.125 31.3243 13.3 31.0618 13.3875C31.0618 13.3 31.2368 12.1625 31.2368 12.1625C31.9368 11.9875 32.3742 11.9 32.8992 11.9C34.1242 11.9 34.7368 12.425 34.7368 13.475C34.7368 13.7375 34.7367 14.0875 34.6492 14.525C34.4742 15.4 34.2117 17.0625 34.2117 17.5ZM36.1368 17.5H34.7368L34.8243 17.15C35.0868 15.4875 35.3492 13.825 35.5242 12.1625H36.8367C36.8367 12.425 36.7493 12.6875 36.7493 12.95C37.1868 12.3375 37.5367 11.9875 38.1492 12.075C37.9742 12.3375 37.7118 12.95 37.6243 13.65C36.7493 13.5625 36.5743 14.175 36.1368 17.5ZM40.3367 17.5L40.4243 16.975C40.0743 17.4125 39.6368 17.5875 39.1118 17.5875C38.0618 17.5875 37.3618 16.7125 37.3618 15.3125C37.3618 13.5625 38.4118 11.9875 39.6368 11.9875C40.1618 11.9875 40.5993 12.25 40.9493 12.6875L41.2993 10.7625H42.6993L41.6492 17.4125H40.3367V17.5Z" fill="white"/>
</g>
</svg>
