<svg width="0" height="0" class="hidden">
  <symbol fill="none" xmlns="http://www.w3.org/2000/svg" viewBox="0 0 29 28" id="adult">
    <path opacity="0.2" d="M28.5058 17.3869C26.6359 24.887 19.0391 29.451 11.5382 27.5811C4.04077 25.7113 -0.523665 18.1145 1.34665 10.6149C3.21565 3.11395 10.812 -1.45093 18.3107 0.418948C25.8112 2.28882 30.3752 9.88645 28.5053 17.3869H28.5058Z" fill="#FEFEFE"></path>
    <path d="M20.993 16.4972C20.9032 16.4972 20.8583 16.4523 20.8583 16.3624V14.7087H19.0085C18.9187 14.7087 18.8738 14.6597 18.8738 14.5617V13.6797C18.8738 13.5817 18.9187 13.5327 19.0085 13.5327H20.8583V11.8789C20.8583 11.7809 20.9032 11.7319 20.993 11.7319H21.924C22.0139 11.7319 22.0588 11.7809 22.0588 11.8789V13.5327H23.9085C23.9984 13.5327 24.0433 13.5817 24.0433 13.6797V14.5617C24.0433 14.6597 23.9984 14.7087 23.9085 14.7087H22.0588V16.3624C22.0588 16.4523 22.0139 16.4972 21.924 16.4972H20.993Z" fill="#14141A"></path>
    <path d="M14.1711 17.9426C13.1911 17.9426 12.4357 17.7507 11.9048 17.3669C11.3822 16.983 11.1208 16.4032 11.1208 15.6274C11.1208 15.1047 11.2433 14.6637 11.4883 14.3044C11.7415 13.945 12.0886 13.6837 12.5296 13.5204C12.1866 13.3652 11.9253 13.1447 11.7456 12.8589C11.5741 12.5649 11.4883 12.181 11.4883 11.7074C11.4883 11.054 11.717 10.5436 12.1743 10.1761C12.6317 9.80863 13.2973 9.62488 14.1711 9.62488C15.0449 9.62488 15.7105 9.80863 16.1679 10.1761C16.6252 10.5436 16.8538 11.054 16.8538 11.7074C16.8538 12.181 16.764 12.5649 16.5844 12.8589C16.4128 13.1447 16.1515 13.3652 15.8004 13.5204C16.2495 13.6837 16.5966 13.945 16.8416 14.3044C17.0948 14.6637 17.2213 15.1047 17.2213 15.6274C17.2213 16.4032 16.9559 16.983 16.4251 17.3669C15.9024 17.7507 15.1511 17.9426 14.1711 17.9426ZM14.1711 16.7544C14.7019 16.7544 15.098 16.6523 15.3593 16.4481C15.6288 16.244 15.7636 15.954 15.7636 15.5784V15.3946C15.7636 14.97 15.6207 14.6474 15.3348 14.4269C15.0572 14.1982 14.6693 14.0839 14.1711 14.0839C13.6729 14.0839 13.2809 14.1982 12.9951 14.4269C12.7174 14.6474 12.5786 14.97 12.5786 15.3946V15.5784C12.5786 15.954 12.7093 16.244 12.9706 16.4481C13.2401 16.6523 13.6403 16.7544 14.1711 16.7544ZM14.1711 13.0181C14.5794 13.0181 14.8898 12.9283 15.1021 12.7486C15.3226 12.5608 15.4328 12.3035 15.4328 11.9769V11.7931C15.4328 11.4828 15.3226 11.2378 15.1021 11.0581C14.8898 10.8703 14.5794 10.7764 14.1711 10.7764C13.7628 10.7764 13.4483 10.8703 13.2278 11.0581C13.0155 11.2378 12.9093 11.4828 12.9093 11.7931V11.9769C12.9093 12.3035 13.0155 12.5608 13.2278 12.7486C13.4483 12.9283 13.7628 13.0181 14.1711 13.0181Z" fill="#14141A"></path>
    <path d="M5.25926 17.7957C5.16943 17.7957 5.12451 17.7467 5.12451 17.6487V16.6687C5.12451 16.5789 5.16943 16.5339 5.25926 16.5339H7.12126V11.3154L5.34501 11.8667C5.24701 11.8994 5.19801 11.8626 5.19801 11.7564V10.7887C5.19801 10.707 5.23068 10.6539 5.29601 10.6294L8.00326 9.74744C8.03593 9.73928 8.0686 9.73111 8.10126 9.72294C8.1421 9.71478 8.17885 9.71069 8.21151 9.71069H8.43201C8.52185 9.71069 8.56676 9.75969 8.56676 9.85769V16.5339H10.245C10.343 16.5339 10.392 16.5789 10.392 16.6687V17.6487C10.392 17.7467 10.343 17.7957 10.245 17.7957H5.25926Z" fill="#14141A"></path>
  </symbol>
  <symbol fill="none" xmlns="http://www.w3.org/2000/svg" viewBox="0 0 55 28" id="applepay">
    <rect x="0.924805" width="54" height="28" rx="8" fill="white" fill-opacity="0.2"></rect>
    <g clip-path="url(#clip0_146_10959)">
      <path d="M16.3981 8.80495C15.9879 9.27783 15.3317 9.65081 14.6754 9.59753C14.5934 8.95814 14.9147 8.27878 15.2907 7.85918C15.7008 7.37298 16.4186 7.02664 16.9997 7C17.068 7.66603 16.8014 8.31874 16.3981 8.80495ZM16.9928 9.72407C16.0426 9.67079 15.2291 10.2502 14.778 10.2502C14.32 10.2502 13.6295 9.75071 12.8776 9.76403C11.9 9.77735 10.9909 10.3168 10.4918 11.176C9.46645 12.8944 10.2252 15.4386 11.2164 16.8373C11.7018 17.53 12.2829 18.2892 13.0485 18.2626C13.7731 18.236 14.0602 17.803 14.9352 17.803C15.817 17.803 16.07 18.2626 16.8356 18.2493C17.6286 18.236 18.1276 17.5566 18.6129 16.8639C19.1666 16.078 19.3922 15.3121 19.4059 15.2721C19.3922 15.2588 17.8747 14.6927 17.861 12.9876C17.8473 11.5623 19.0573 10.883 19.112 10.843C18.4284 9.85728 17.362 9.75071 16.9928 9.72407ZM22.4821 7.79258V18.176H24.1364V14.6261H26.4264C28.5182 14.6261 29.9879 13.2274 29.9879 11.2027C29.9879 9.17793 28.5456 7.79258 26.4811 7.79258H22.4821ZM24.1364 9.15128H26.0436C27.4791 9.15128 28.2995 9.89724 28.2995 11.2093C28.2995 12.5214 27.4791 13.274 26.0368 13.274H24.1364V9.15128ZM33.0094 18.2559C34.0485 18.2559 35.0123 17.7431 35.4498 16.9305H35.484V18.176H37.0153V13.0076C37.0153 11.509 35.7848 10.5433 33.8913 10.5433C32.1344 10.5433 30.8356 11.5224 30.7877 12.8677H32.278C32.401 12.2284 33.0094 11.8088 33.8434 11.8088C34.8551 11.8088 35.4225 12.2683 35.4225 13.1142V13.687L33.3581 13.8069C31.4372 13.9201 30.3981 14.686 30.3981 16.0181C30.3981 17.3635 31.4713 18.2559 33.0094 18.2559ZM33.4538 17.0238C32.5719 17.0238 32.0114 16.6108 32.0114 15.9781C32.0114 15.3254 32.5514 14.9458 33.5836 14.8858L35.4225 14.7726V15.3587C35.4225 16.3311 34.5748 17.0238 33.4538 17.0238ZM39.0592 21C40.6725 21 41.4313 20.4006 42.0944 18.5823L44.9997 10.6432H43.318L41.3698 16.7774H41.3356L39.3873 10.6432H37.6579L40.4606 18.2027L40.3102 18.6622C40.0573 19.4415 39.6471 19.7412 38.9157 19.7412C38.7858 19.7412 38.5329 19.7279 38.4303 19.7146V20.96C38.526 20.9867 38.9362 21 39.0592 21Z" fill="#13131A"></path>
    </g>
    <defs>
      <clipPath id="clip0_146_10959">
        <rect width="35" height="14" fill="white" transform="translate(9.99951 7)"></rect>
      </clipPath>
    </defs>
  </symbol>
  <symbol fill="none" xmlns="http://www.w3.org/2000/svg" viewBox="0 0 29 28" id="bts">
    <path opacity="0.2" d="M28.5036 17.3869C26.6337 24.887 19.037 29.451 11.536 27.5811C4.03858 25.7113 -0.525862 18.1145 1.34445 10.6149C3.21345 3.11395 10.8098 -1.45093 18.3085 0.418948C25.809 2.28882 30.373 9.88645 28.5031 17.3869H28.5036Z" fill="white"></path>
    <path d="M15.6038 7.79822L15.1848 9.47595C15.4644 9.53976 15.7461 9.60398 16.0198 9.67224L16.4348 8.00525L17.4768 8.26501L17.05 9.97693C18.3657 10.4301 19.3277 11.1097 19.1389 12.3734C19.0021 13.2985 18.4896 13.7461 17.8088 13.9037C18.7437 14.3907 19.2191 15.138 18.7659 16.432C18.204 18.0383 16.8676 18.1744 15.0911 17.8383L14.6594 19.5658L13.6174 19.306L14.0432 17.601C13.7732 17.5339 13.4971 17.4632 13.2131 17.3861L12.7854 19.099L11.7444 18.8392L12.176 17.1078C11.9331 17.0455 11.686 16.9786 11.4338 16.9154L10.0774 16.5775L10.594 15.3842C10.594 15.3842 11.3591 15.5879 11.3518 15.5736C11.6468 15.6466 11.7777 15.4538 11.8293 15.3256L12.511 12.5941L12.6204 12.6215C12.5791 12.605 12.5419 12.5937 12.5129 12.5863L12.9983 10.6361C13.0113 10.4147 12.9348 10.136 12.5129 10.0306C12.5293 10.0197 11.7561 9.84216 11.7561 9.84216L12.0334 8.72888L13.4709 9.08826L13.469 9.09314C13.6851 9.14686 13.9083 9.19775 14.135 9.24939L14.5618 7.53845L15.6038 7.79822ZM13.552 16.1312C14.2587 16.3069 16.4377 17.0063 16.76 15.7123C17.0957 14.3628 14.8307 14.0136 14.1243 13.8373L13.552 16.1312ZM14.385 12.7875C14.9738 12.9342 16.7865 13.5316 17.0803 12.3549C17.3866 11.127 15.4921 10.853 14.9036 10.7064L14.385 12.7875Z" fill="#14141A"></path>
  </symbol>
  <symbol fill="none" xmlns="http://www.w3.org/2000/svg" viewBox="0 0 29 28" id="ethereum">
    <path opacity="0.2" d="M28.5048 17.3869C26.6349 24.887 19.0382 29.451 11.5372 27.5811C4.0398 25.7113 -0.524641 18.1145 1.34567 10.6149C3.21467 3.11395 10.811 -1.45093 18.3097 0.418948C25.8102 2.28882 30.3742 9.88645 28.5044 17.3869H28.5048Z" fill="#FEFEFE"></path>
    <g clip-path="url(#clip0_146_10989)">
      <path opacity="0.6" d="M14.6357 12.3672L10.6074 14.1985L14.6357 16.5798L18.6647 14.1985L14.6357 12.3672Z" fill="#14141A"></path>
      <path opacity="0.45" d="M10.6082 14.1984L14.6364 16.5797V12.3671V7.51428L10.6082 14.1984Z" fill="#14141A"></path>
      <path opacity="0.8" d="M14.6372 7.51428V12.3671V16.5797L18.6655 14.1984L14.6372 7.51428Z" fill="#14141A"></path>
      <path opacity="0.45" d="M10.6074 14.9625L14.6357 20.6392V17.3423L10.6074 14.9625Z" fill="#14141A"></path>
      <path opacity="0.8" d="M14.6348 17.3423V20.6392L18.666 14.9625L14.6348 17.3423Z" fill="#14141A"></path>
    </g>
    <defs>
      <clipPath id="clip0_146_10989">
        <rect width="8.75" height="14" fill="white" transform="translate(10.5518 7)"></rect>
      </clipPath>
    </defs>
  </symbol>
  <symbol fill="none" xmlns="http://www.w3.org/2000/svg" viewBox="0 0 55 28" id="googlepay">
    <rect x="0.925293" width="54" height="28" rx="8" fill="white" fill-opacity="0.2"></rect>
    <g clip-path="url(#clip0_146_10962)">
      <path d="M26.5376 14.2729L26.5376 18.1784L25.2251 18.1784L25.2251 8.51965L28.6376 8.51965C29.4688 8.51965 30.2563 8.81362 30.8688 9.35955C31.4813 9.86349 31.7876 10.6194 31.7876 11.4173C31.7876 12.2152 31.4813 12.9291 30.8688 13.475C30.2563 14.021 29.5126 14.3149 28.6376 14.3149L26.5376 14.2729ZM26.5376 9.69551L26.5376 13.0551L28.7251 13.0551C29.2063 13.0551 29.6876 12.8871 29.9938 12.5511C30.6938 11.9212 30.6938 10.8714 30.0376 10.2414L29.9938 10.1994C29.6438 9.86349 29.2063 9.65351 28.7251 9.69551L26.5376 9.69551Z" fill="#14141B"></path>
      <path d="M34.8063 11.3754C35.7688 11.3754 36.5126 11.6273 37.0813 12.1313C37.6501 12.6352 37.9126 13.3071 37.9126 14.147L37.9126 18.1785L36.6876 18.1785L36.6876 17.2546L36.6438 17.2546C36.1188 18.0105 35.3751 18.3885 34.5001 18.3885C33.7563 18.3885 33.1001 18.1785 32.5751 17.7586C32.0938 17.3386 31.7876 16.7507 31.7876 16.1208C31.7876 15.4489 32.0501 14.9029 32.5751 14.483C33.1001 14.063 33.8438 13.8951 34.7188 13.8951C35.5063 13.8951 36.1188 14.021 36.6001 14.315L36.6001 14.021C36.6001 13.6011 36.4251 13.1811 36.0751 12.9292C35.7251 12.6352 35.2876 12.4672 34.8063 12.4672C34.0626 12.4672 33.4938 12.7612 33.1001 13.3491L31.9626 12.6772C32.6626 11.7953 33.5813 11.3754 34.8063 11.3754ZM33.1438 16.1628C33.1438 16.4987 33.3188 16.7927 33.5813 16.9607C33.8876 17.1706 34.2376 17.2966 34.5876 17.2966C35.1126 17.2966 35.6376 17.0867 36.0313 16.7087C36.4688 16.3307 36.6876 15.8688 36.6876 15.3649C36.2938 15.0709 35.7251 14.9029 34.9813 14.9029C34.4563 14.9029 34.0188 15.0289 33.6688 15.2809C33.3188 15.4909 33.1438 15.7848 33.1438 16.1628Z" fill="#14141B"></path>
      <path d="M45.0001 11.5853L40.6688 21.1181L39.3563 21.1181L40.9751 17.8006L38.1313 11.6273L39.5313 11.6273L41.5876 16.3727L41.6313 16.3727L43.6438 11.6273L45.0001 11.6273L45.0001 11.5853Z" fill="#14141B"></path>
      <path d="M21.3319 13.4331C21.3319 13.0551 21.2881 12.6771 21.2444 12.2992L15.7756 12.2992L15.7756 14.4409L18.8819 14.4409C18.7506 15.1128 18.3569 15.7428 17.7444 16.1207L17.7444 17.5065L19.6256 17.5065C20.7194 16.5407 21.3319 15.1128 21.3319 13.4331Z" fill="#14141B"></path>
      <path d="M15.7758 18.8504C17.3508 18.8504 18.6633 18.3464 19.6258 17.5065L17.7445 16.1207C17.2195 16.4567 16.5633 16.6666 15.7758 16.6666C14.2883 16.6666 12.9758 15.7008 12.5383 14.3569L10.6133 14.3569L10.6133 15.7848C11.6195 17.6745 13.5883 18.8504 15.7758 18.8504Z" fill="#14141B"></path>
      <path d="M12.5387 14.357C12.2762 13.6851 12.2762 12.9292 12.5387 12.2153L12.5387 10.7875L10.6137 10.7875C9.78242 12.3413 9.78242 14.1891 10.6137 15.7849L12.5387 14.357Z" fill="#14141B"></path>
      <path d="M15.7755 9.94746C16.6067 9.94746 17.3942 10.2414 18.0067 10.7874L19.6692 9.19156C18.6192 8.26767 17.2192 7.72174 15.8192 7.76373C13.6317 7.76373 11.6192 8.93959 10.6567 10.8294L12.5817 12.2572C12.9755 10.9133 14.288 9.94746 15.7755 9.94746Z" fill="#14141B"></path>
    </g>
    <defs>
      <clipPath id="clip0_146_10962">
        <rect width="35" height="16" fill="white" transform="translate(10.0005 6)"></rect>
      </clipPath>
    </defs>
  </symbol>
  <symbol fill="none" xmlns="http://www.w3.org/2000/svg" viewBox="0 0 44 28" id="mastercard">
    <g opacity="0.2">
      <path d="M9.27441 15.8376C9.27441 16.1876 9.44945 16.3625 9.79945 16.3625C10.4119 16.3625 10.762 15.8375 10.8495 15.05C10.6745 15.05 10.6744 15.05 10.4994 15.05C9.71194 15.05 9.27441 15.3126 9.27441 15.8376Z" fill="white"></path>
      <path d="M31.6748 15.8376C31.6748 16.1876 31.8498 16.3625 32.1998 16.3625C32.8123 16.3625 33.1623 15.8375 33.2498 15.05C33.0748 15.05 33.0748 15.05 32.8998 15.05C32.0248 15.05 31.6748 15.3126 31.6748 15.8376Z" fill="white"></path>
      <path d="M20.9993 13.2125C20.5618 13.2125 20.2118 13.5625 20.1243 14.175H21.6993C21.6993 14 21.8743 13.2125 20.9993 13.2125Z" fill="white"></path>
      <path d="M39.9876 13.3876C39.3751 13.3876 38.8501 14.1751 38.8501 15.2251C38.8501 15.9251 39.1126 16.2751 39.5501 16.2751C40.2501 16.2751 40.6876 15.4876 40.6876 14.4376C40.7751 13.7376 40.5126 13.3876 39.9876 13.3876Z" fill="white"></path>
      <path d="M30.8868 0.962524C27.5618 0.962524 24.4993 2.18751 22.1368 4.28751C19.8618 2.18751 16.7993 0.962524 13.4743 0.962524C6.29929 0.962524 0.436768 6.82505 0.436768 14C0.436768 21.175 6.29929 27.0375 13.4743 27.0375C16.7993 27.0375 19.8618 25.8125 22.1368 23.7125C24.4118 25.8125 27.4743 27.0375 30.8868 27.0375C38.0618 27.0375 43.9243 21.175 43.9243 14C43.9243 6.82505 38.0618 0.962524 30.8868 0.962524ZM5.94926 17.5L6.73678 12.425L4.89925 17.5H3.93677L3.84929 12.425L2.97429 17.5H1.66179L2.79928 10.85H4.81177L4.89925 14.9625L6.29928 10.85H8.48678L7.34929 17.5H5.94926ZM10.6743 17.5V16.975C10.3243 17.4125 9.79927 17.5875 9.18677 17.5875C8.39927 17.5875 7.87427 16.975 7.87427 16.1C7.87427 14.7875 8.74926 14 10.3243 14C10.4993 14 10.6743 14 10.9368 14C11.0243 13.825 11.0242 13.7375 11.0242 13.65C11.0242 13.3 10.7617 13.125 10.1492 13.125C9.44925 13.125 8.92429 13.3 8.66179 13.3875C8.66179 13.3 8.83675 12.1625 8.83675 12.1625C9.53675 11.9875 9.97427 11.9 10.4993 11.9C11.7243 11.9 12.3367 12.425 12.3367 13.475C12.3367 13.7375 12.3368 14.0875 12.2493 14.525C12.1618 15.3125 11.8993 16.975 11.8118 17.4125C11.6368 17.5 10.6743 17.5 10.6743 17.5ZM14.8743 14.2625C15.5743 14.6125 15.8367 15.05 15.8367 15.75C15.8367 16.975 15.1367 17.5875 13.6492 17.5875C12.7742 17.5875 12.5118 17.5 12.1618 17.4125C12.1618 17.325 12.3367 16.1875 12.3367 16.1875C12.7742 16.3625 13.2117 16.3625 13.6492 16.3625C14.1742 16.3625 14.4368 16.1875 14.4368 15.8375C14.4368 15.575 14.3493 15.4875 13.7368 15.225C12.9493 14.875 12.6868 14.4375 12.6868 13.7375C12.6868 12.775 13.2118 11.9 14.7868 11.9C15.1368 11.9 15.6618 11.9875 16.0118 11.9875L15.8367 13.2125C15.4867 13.125 15.1368 13.125 14.7868 13.125C14.3493 13.125 14.0867 13.3 14.0867 13.5625C14.1742 13.9125 14.2618 14 14.8743 14.2625ZM17.9368 16.275C18.1118 16.275 18.1993 16.275 18.2868 16.1875L18.1118 17.4125C17.7618 17.5 17.4118 17.5875 17.0618 17.5875C16.3618 17.5875 15.9243 17.15 15.9243 16.3625C15.9243 16.1 16.0118 15.4875 16.0993 14.9625C16.1868 14.4375 16.7117 11.2875 16.7117 11.2875H18.1118L17.9368 12.075H18.6368L18.4617 13.3875H17.7618C17.5868 14.4375 17.3243 15.6625 17.3243 15.8375C17.4993 16.1 17.6743 16.275 17.9368 16.275ZM21.2618 16.3625C21.7868 16.3625 22.2243 16.275 22.7493 16.0125L22.4868 17.325C21.9618 17.5 21.5243 17.5 20.9993 17.5C19.4243 17.5 18.6368 16.7125 18.6368 15.1375C18.6368 13.3 19.6867 11.9 21.0867 11.9C22.2242 11.9 23.0118 12.6875 23.0118 13.825C23.0118 14.2625 22.9242 14.6125 22.8367 15.1375H20.0368C19.9493 16.0125 20.4743 16.3625 21.2618 16.3625ZM24.4118 17.5H23.0118L23.0993 17.15C23.3618 15.4875 23.6243 13.825 23.7993 12.1625H25.1118C25.1118 12.425 25.0242 12.6875 25.0242 12.95C25.4617 12.3375 25.8118 11.9875 26.4243 12.075C26.2493 12.3375 25.9867 12.95 25.8992 13.65C25.0242 13.5625 24.9368 14.175 24.4118 17.5ZM29.8367 17.4125C29.3117 17.5875 28.9618 17.5875 28.6118 17.5875C27.1243 17.5875 26.1618 16.45 26.1618 14.7C26.1618 12.3375 27.4742 10.675 29.3992 10.675C30.0117 10.675 30.7118 10.9375 30.9743 11.025L30.7117 12.425C30.1867 12.1625 29.8368 12.075 29.4868 12.075C28.4368 12.075 27.6492 13.125 27.6492 14.525C27.6492 15.4875 28.1742 16.1 28.9617 16.1C29.3117 16.1 29.6618 16.0125 30.1868 15.75L29.8367 17.4125ZM34.2117 17.5C34.0367 17.5 33.0743 17.5 33.0743 17.5V16.975C32.7243 17.4125 32.1992 17.5875 31.5867 17.5875C30.7992 17.5875 30.2742 16.975 30.2742 16.1C30.2742 14.7875 31.1493 14 32.7243 14C32.8993 14 33.0742 14 33.3367 14C33.4242 13.825 33.4243 13.7375 33.4243 13.65C33.4243 13.3 33.1618 13.125 32.5493 13.125C31.8493 13.125 31.3243 13.3 31.0618 13.3875C31.0618 13.3 31.2368 12.1625 31.2368 12.1625C31.9368 11.9875 32.3742 11.9 32.8992 11.9C34.1242 11.9 34.7368 12.425 34.7368 13.475C34.7368 13.7375 34.7367 14.0875 34.6492 14.525C34.4742 15.4 34.2117 17.0625 34.2117 17.5ZM36.1368 17.5H34.7368L34.8243 17.15C35.0868 15.4875 35.3492 13.825 35.5242 12.1625H36.8367C36.8367 12.425 36.7493 12.6875 36.7493 12.95C37.1868 12.3375 37.5367 11.9875 38.1492 12.075C37.9742 12.3375 37.7118 12.95 37.6243 13.65C36.7493 13.5625 36.5743 14.175 36.1368 17.5ZM40.3367 17.5L40.4243 16.975C40.0743 17.4125 39.6368 17.5875 39.1118 17.5875C38.0618 17.5875 37.3618 16.7125 37.3618 15.3125C37.3618 13.5625 38.4118 11.9875 39.6368 11.9875C40.1618 11.9875 40.5993 12.25 40.9493 12.6875L41.2993 10.7625H42.6993L41.6492 17.4125H40.3367V17.5Z" fill="white"></path>
    </g>
  </symbol>
  <symbol fill="none" xmlns="http://www.w3.org/2000/svg" viewBox="0 0 29 28" id="tether">
    <path opacity="0.2" d="M28.8494 14.0002C28.8494 21.6915 22.6145 27.9266 14.9233 27.9266C7.23202 27.9266 0.99707 21.6915 0.99707 14.0002C0.99707 6.30905 7.23202 0.0740967 14.9233 0.0740967C22.6144 0.0740967 28.8494 6.30905 28.8494 14.0002Z" fill="white"></path>
    <path d="M13.4939 13.7564V11.3201H10.1895V9.18457H19.4233V11.3502H16.1189V13.7564H13.4939Z" fill="#14141A"></path>
    <path d="M14.7307 12.5533C18.0347 12.5534 20.6903 13.215 20.6907 14.027C20.6907 14.8391 18.0349 15.5006 14.7307 15.5006C11.4263 15.5006 8.76978 14.8391 8.76978 14.027C8.77018 13.215 11.4266 12.5533 14.7307 12.5533ZM14.7297 12.7936C11.2709 12.7936 9.47912 13.6961 9.26294 14.027C9.47912 14.3278 11.2709 14.7789 14.7297 14.7789C18.2193 14.7789 19.9794 14.3278 20.1956 14.027C19.9787 13.726 18.1876 12.7936 14.7297 12.7936Z" fill="#14141A"></path>
    <path d="M16.12 14.5084V12.8241C15.6876 12.794 15.2244 12.7639 14.7612 12.7639C14.3288 12.7639 13.9273 12.7639 13.5259 12.794V14.4784C13.8965 14.4784 14.3288 14.5084 14.7612 14.5084C15.2244 14.5385 15.6876 14.5385 16.12 14.5084Z" fill="#14141A"></path>
    <path d="M14.7304 15.501C14.2981 15.501 13.8966 15.501 13.4951 15.4709V19.9525H16.0892V15.4408C15.6569 15.4709 15.1936 15.501 14.7304 15.501Z" fill="#14141A"></path>
  </symbol>
  <symbol fill="none" xmlns="http://www.w3.org/2000/svg" viewBox="0 0 43 14" id="visa">
    <g opacity="0.2">
      <path d="M17.6753 0.4375L14.7878 13.7375H18.2878L21.0878 0.4375H17.6753Z" fill="white"></path>
      <path d="M12.5995 0.437576L9.012 9.45007L7.52449 1.75008C7.34949 0.875076 6.6495 0.437576 5.9495 0.437576H0.0869904L-0.000488281 0.787598C1.22451 1.0501 2.53703 1.48759 3.41203 1.92509C3.93703 2.18759 4.0245 2.45008 4.1995 3.06258L6.91203 13.6501H10.587L16.187 0.350098H12.5995V0.437576Z" fill="white"></path>
      <path d="M39.812 0.4375H36.837C36.137 0.4375 35.612 0.787532 35.3495 1.40003L30.187 13.7375H33.7745L34.4745 11.725H38.8495L39.287 13.7375H42.437L39.812 0.4375ZM35.612 9.01249L37.4495 4.02503L38.4995 9.01249H35.612Z" fill="white"></path>
      <path d="M25.6372 4.11255C25.6372 3.67505 26.0747 3.15006 27.1247 2.97506C27.6497 2.88756 28.9622 2.88757 30.5372 3.58757L31.1497 0.78756C30.3622 0.525059 29.2247 0.175049 27.9122 0.175049C24.4997 0.175049 22.1372 2.01255 22.1372 4.55005C22.1372 6.47505 23.8872 7.52503 25.1122 8.13753C26.4247 8.75003 26.8622 9.18755 26.8622 9.80005C26.8622 10.675 25.8122 11.1125 24.7622 11.1125C23.0122 11.1125 22.0497 10.675 21.2622 10.2375L20.6497 13.125C21.4372 13.475 22.9247 13.825 24.4997 13.825C28.0872 13.825 30.4497 12.0751 30.4497 9.27507C30.4497 5.95007 25.5497 5.68755 25.6372 4.11255Z" fill="white"></path>
    </g>
  </symbol>
</svg>