<svg width="29" height="28" viewBox="0 0 29 28" fill="none" xmlns="http://www.w3.org/2000/svg">
<path opacity="0.2" d="M28.8494 14.0002C28.8494 21.6915 22.6145 27.9266 14.9233 27.9266C7.23202 27.9266 0.99707 21.6915 0.99707 14.0002C0.99707 6.30905 7.23202 0.0740967 14.9233 0.0740967C22.6144 0.0740967 28.8494 6.30905 28.8494 14.0002Z" fill="white"/>
<path d="M13.4939 13.7564V11.3201H10.1895V9.18457H19.4233V11.3502H16.1189V13.7564H13.4939Z" fill="#14141A"/>
<path d="M14.7307 12.5533C18.0347 12.5534 20.6903 13.215 20.6907 14.027C20.6907 14.8391 18.0349 15.5006 14.7307 15.5006C11.4263 15.5006 8.76978 14.8391 8.76978 14.027C8.77018 13.215 11.4266 12.5533 14.7307 12.5533ZM14.7297 12.7936C11.2709 12.7936 9.47912 13.6961 9.26294 14.027C9.47912 14.3278 11.2709 14.7789 14.7297 14.7789C18.2193 14.7789 19.9794 14.3278 20.1956 14.027C19.9787 13.726 18.1876 12.7936 14.7297 12.7936Z" fill="#14141A"/>
<path d="M16.12 14.5084V12.8241C15.6876 12.794 15.2244 12.7639 14.7612 12.7639C14.3288 12.7639 13.9273 12.7639 13.5259 12.794V14.4784C13.8965 14.4784 14.3288 14.5084 14.7612 14.5084C15.2244 14.5385 15.6876 14.5385 16.12 14.5084Z" fill="#14141A"/>
<path d="M14.7304 15.501C14.2981 15.501 13.8966 15.501 13.4951 15.4709V19.9525H16.0892V15.4408C15.6569 15.4709 15.1936 15.501 14.7304 15.501Z" fill="#14141A"/>
</svg>
