<svg width="43" height="14" viewBox="0 0 43 14" fill="none" xmlns="http://www.w3.org/2000/svg">
<g opacity="0.2">
<path d="M17.6753 0.4375L14.7878 13.7375H18.2878L21.0878 0.4375H17.6753Z" fill="white"/>
<path d="M12.5995 0.437576L9.012 9.45007L7.52449 1.75008C7.34949 0.875076 6.6495 0.437576 5.9495 0.437576H0.0869904L-0.000488281 0.787598C1.22451 1.0501 2.53703 1.48759 3.41203 1.92509C3.93703 2.18759 4.0245 2.45008 4.1995 3.06258L6.91203 13.6501H10.587L16.187 0.350098H12.5995V0.437576Z" fill="white"/>
<path d="M39.812 0.4375H36.837C36.137 0.4375 35.612 0.787532 35.3495 1.40003L30.187 13.7375H33.7745L34.4745 11.725H38.8495L39.287 13.7375H42.437L39.812 0.4375ZM35.612 9.01249L37.4495 4.02503L38.4995 9.01249H35.612Z" fill="white"/>
<path d="M25.6372 4.11255C25.6372 3.67505 26.0747 3.15006 27.1247 2.97506C27.6497 2.88756 28.9622 2.88757 30.5372 3.58757L31.1497 0.78756C30.3622 0.525059 29.2247 0.175049 27.9122 0.175049C24.4997 0.175049 22.1372 2.01255 22.1372 4.55005C22.1372 6.47505 23.8872 7.52503 25.1122 8.13753C26.4247 8.75003 26.8622 9.18755 26.8622 9.80005C26.8622 10.675 25.8122 11.1125 24.7622 11.1125C23.0122 11.1125 22.0497 10.675 21.2622 10.2375L20.6497 13.125C21.4372 13.475 22.9247 13.825 24.4997 13.825C28.0872 13.825 30.4497 12.0751 30.4497 9.27507C30.4497 5.95007 25.5497 5.68755 25.6372 4.11255Z" fill="white"/>
</g>
</svg>
